<?xml version="1.0" encoding="UTF-8"?>
<svg id="_圖層_1" data-name="圖層_1" xmlns="http://www.w3.org/2000/svg" viewBox="0 0 445.91 392.06">
  <defs>
    <style>
      .cls-1 {
        fill: none;
        stroke: #fff;
        stroke-miterlimit: 10;
        stroke-width: 5px;
      }
    </style>
  </defs>
  <path class="cls-1" d="M334.59,90.19l-75.09-43.35c-22.61-13.06-50.47-13.06-73.1,0l-75.09,43.35c-22.61,13.06-36.54,37.18-36.54,63.3v86.69c0,26.12,13.93,50.24,36.54,63.3l75.09,43.35c22.61,13.06,50.47,13.06,73.1,0l75.09-43.35c22.61-13.06,36.54-37.18,36.54-63.3v-86.69c0-26.12-13.93-50.24-36.54-63.3ZM287.64,170.08l-42.74,93.24c-2.97,6.48-10.63,9.33-17.12,6.36h0s-63.15-28.94-63.15-28.94c-6.48-2.97-9.33-10.63-6.36-17.12l42.74-93.24c2.97-6.48,10.63-9.33,17.12-6.36l63.15,28.94c6.48,2.97,9.33,10.63,6.36,17.12Z"/>
</svg>