<?xml version="1.0" encoding="UTF-8"?>
<svg xmlns="http://www.w3.org/2000/svg" version="1.1" viewBox="0 0 1693 900">
  <defs>
    <style>
      .cls-1 {
        fill: none;
        stroke: #57dbff;
        stroke-width: 3px;
      }
    </style>
  </defs>
  <!-- Generator: Adobe Illustrator 28.7.1, SVG Export Plug-In . SVG Version: 1.2.0 Build 142)  -->
  <g>
    <g id="_圖層_1" data-name="圖層_1">
      <g>
        <path class="cls-1" d="M195.59,580.16l-80.29-231.15h90.43l39.6,122.11,41.53-122.11h81.13l40.08,123.59,41.47-123.59h83.67l-80.29,231.15h-92.97l-34.95-106.97-36.47,106.97h-92.97Z"/>
        <path class="cls-1" d="M676.9,580.16v-313.55h95.5v313.55h-95.5Z"/>
        <path class="cls-1" d="M813.39,584.38c-26.48,0-50.01-5.07-70.57-15.21-20.57-10.14-36.7-24.3-48.38-42.47-11.69-18.17-17.54-38.94-17.54-62.33s5.84-44.09,17.54-62.12c11.69-18.03,27.82-32.12,48.38-42.26,20.56-10.14,44.09-15.21,70.57-15.21,28.17,0,52.25,6.06,72.26,18.17,20,12.12,33.81,28.88,41.41,50.29l-73.95,36.34c-4.79-10.7-10.64-18.45-17.54-23.24-6.91-4.79-14.44-7.18-22.61-7.18-7.04,0-13.59,1.69-19.65,5.07-6.06,3.38-10.85,8.39-14.37,15-3.53,6.62-5.28,15-5.28,25.14s1.76,18.59,5.28,25.35c3.52,6.76,8.31,11.83,14.37,15.21,6.06,3.38,12.61,5.07,19.65,5.07,8.17,0,15.7-2.39,22.61-7.18,6.9-4.79,12.74-12.53,17.54-23.24l73.95,36.34c-7.61,21.41-21.41,38.18-41.41,50.29-20.01,12.12-44.09,18.17-72.26,18.17Z"/>
        <path class="cls-1" d="M986.09,584.38c-26.2,0-49.38-5.14-69.51-15.42-20.14-10.28-35.99-24.44-47.54-42.47-11.55-18.03-17.33-38.73-17.33-62.12s5.77-44.09,17.33-62.12c11.55-18.03,27.39-32.12,47.54-42.26,20.14-10.14,43.31-15.21,69.51-15.21s49.44,5.07,69.72,15.21c20.28,10.14,36.13,24.23,47.54,42.26,11.41,18.03,17.11,38.74,17.11,62.12s-5.7,44.09-17.11,62.12c-11.41,18.03-27.26,32.19-47.54,42.47-20.28,10.29-43.53,15.42-69.72,15.42ZM986.09,510.01c7.04,0,13.38-1.69,19.02-5.07,5.63-3.38,10.14-8.52,13.52-15.42,3.38-6.9,5.07-15.28,5.07-25.14s-1.69-18.52-5.07-25.14c-3.38-6.62-7.89-11.62-13.52-15-5.64-3.38-11.98-5.07-19.02-5.07s-13.38,1.69-19.02,5.07c-5.64,3.38-10.14,8.39-13.52,15-3.38,6.62-5.07,15-5.07,25.14s1.69,18.24,5.07,25.14c3.38,6.91,7.88,12.04,13.52,15.42,5.63,3.38,11.97,5.07,19.02,5.07Z"/>
        <path class="cls-1" d="M1329.65,344.78c17.46,0,33.17,3.59,47.12,10.78,13.95,7.18,24.93,18.38,32.96,33.59,8.03,15.21,12.04,34.93,12.04,59.16v131.84h-95.5v-115.36c0-14.37-2.4-24.57-7.18-30.64-4.79-6.05-10.99-9.09-18.59-9.09-5.64,0-10.71,1.41-15.21,4.23-4.51,2.82-8.1,7.26-10.78,13.31-2.68,6.06-4.01,14.3-4.01,24.72v112.83h-95.5v-115.36c0-14.37-2.26-24.57-6.76-30.64-4.51-6.05-10.85-9.09-19.02-9.09-5.64,0-10.71,1.41-15.21,4.23-4.51,2.82-8.1,7.26-10.78,13.31-2.68,6.06-4.01,14.3-4.01,24.72v112.83h-95.5v-231.15h90.85v21.42s1.83-4.16,16.48-12.76c14.65-8.59,30.99-12.89,49.02-12.89,20.28,0,39.34,3.82,53.88,15.85,14.58,12.06,19.23,18.15,19.23,18.15,5.63-6.3,10.97-11.35,20.07-17.73,15.95-11.2,35-16.27,56.41-16.27Z"/>
        <path class="cls-1" d="M515.27,488.46c.77,2.04,1.69,3.99,2.74,5.84,3.94,6.92,9.57,12.11,16.9,15.57,7.32,3.46,16.2,5.19,26.62,5.19s19.5-1.38,26.41-4.15c6.9-2.76,14.16-6.91,21.76-12.45l49.86,49.4c-11.27,11.9-25.14,20.96-41.62,27.19-16.48,6.23-36.28,9.34-59.37,9.34-28.17,0-52.76-5.12-73.74-15.36-20.99-10.24-37.26-24.28-48.81-42.13-11.55-17.85-17.33-37.98-17.33-60.4s5.7-43.31,17.11-61.02c11.41-17.71,27.05-31.55,46.91-41.51,19.86-9.96,42.18-14.94,66.98-14.94,22.82,0,43.87,4.43,63.17,13.28,19.29,8.86,34.79,22,46.48,39.44,11.69,17.43,17.54,39.02,17.54,64.76,0,3.32-.15,6.99-.42,11-.28,4.02-.57,7.68-.85,11h-160.36M513.2,443.24h74.64s-.46-4.36-3.69-10.59c-3.24-6.23-7.68-11.07-13.31-14.53-5.64-3.46-12.4-5.19-20.28-5.19s-14.72,1.73-20.49,5.19c-5.78,3.46-10.22,8.3-13.31,14.53-1.59,3.19-2.77,6.74-3.55,10.62"/>
        <path class="cls-1" d="M1424.74,486.74c.79,2.08,1.72,4.06,2.79,5.94,4.01,7.05,9.75,12.33,17.21,15.85,7.45,3.53,16.49,5.28,27.1,5.28s19.85-1.41,26.88-4.23c7.02-2.81,14.41-7.04,22.15-12.68l50.76,50.29c-11.47,12.12-25.59,21.34-42.37,27.68-16.78,6.34-36.93,9.51-60.44,9.51-28.68,0-53.7-5.21-75.06-15.64-21.37-10.42-37.93-24.72-49.68-42.89-11.76-18.17-17.64-38.67-17.64-61.48s5.81-44.09,17.42-62.12c11.61-18.03,27.53-32.12,47.75-42.26,20.22-10.14,42.94-15.21,68.18-15.21,23.23,0,44.66,4.51,64.31,13.52,19.64,9.02,35.42,22.4,47.32,40.14,11.9,17.75,17.85,39.72,17.85,65.92,0,3.38-.15,7.12-.43,11.2-.29,4.09-.58,7.82-.86,11.2h-163.24M1422.63,440.71h75.98s-.47-4.44-3.76-10.78c-3.3-6.34-7.82-11.26-13.55-14.79-5.74-3.52-12.62-5.28-20.65-5.28s-14.99,1.76-20.86,5.28c-5.88,3.53-10.4,8.45-13.55,14.79-1.62,3.25-2.82,6.86-3.61,10.81"/>
      </g>
    </g>
  </g>
</svg>